<?xml version="1.0" encoding="utf-8"?>
<!-- Generator: Adobe Illustrator 16.0.0, SVG Export Plug-In . SVG Version: 6.00 Build 0)  -->
<!DOCTYPE svg PUBLIC "-//W3C//DTD SVG 1.1//EN" "http://www.w3.org/Graphics/SVG/1.1/DTD/svg11.dtd">
<svg version="1.1" id="Layer_1" xmlns="http://www.w3.org/2000/svg" xmlns:xlink="http://www.w3.org/1999/xlink" x="0px" y="0px"
	 width="66px" height="66px" viewBox="0 0 66 66" enable-background="new 0 0 66 66" xml:space="preserve">
<g>
	<g>
		<g>
			<path fill="#db6751" d="M64,33c0,17.118-13.88,31.001-31,31.001C15.882,64.001,2,50.118,2,33C2,15.88,15.882,1.999,33,1.999
				C50.12,1.999,64,15.88,64,33z"/>
			<path fill="#db6751" d="M33,1.999C50.12,1.999,64,15.88,64,33c0,17.118-13.88,31.001-31,31.001"/>
			<path fill="#db6751" d="M11.077,11.078C23.185-1.028,42.815-1.026,54.923,11.08c12.102,12.105,12.104,31.732,0,43.841"/>
		</g>
	</g>
	<g>
		<path fill="#db6751" d="M25.5,25.977c-1.47,0-2.5,1.195-2.5,2.664v14.531c0,1.469,1.03,2.664,2.5,2.664s2.5-1.195,2.5-2.664
			V28.641C28,27.172,26.97,25.977,25.5,25.977z"/>
		<path fill="#db6751" d="M40.5,25.977c-1.47,0-2.5,1.195-2.5,2.664v14.531c0,1.469,1.03,2.664,2.5,2.664s2.5-1.195,2.5-2.664
			V28.641C43,27.172,41.97,25.977,40.5,25.977z"/>
	</g>
	<g>
		<path fill="#FFFFFF" d="M25.5,23.07c-1.47,0-2.5,1.195-2.5,2.664v14.531c0,1.469,1.03,2.664,2.5,2.664s2.5-1.195,2.5-2.664V25.734
			C28,24.266,26.97,23.07,25.5,23.07z"/>
		<path fill="#FFFFFF" d="M40.5,23.07c-1.47,0-2.5,1.195-2.5,2.664v14.531c0,1.469,1.03,2.664,2.5,2.664s2.5-1.195,2.5-2.664V25.734
			C43,24.266,41.97,23.07,40.5,23.07z"/>
	</g>
</g>
</svg>
